rec1_002.mot
nRows=12
nColumns=19

name rec1_002.mot
datacolumns 19
datarows 12
range 0.0000000000 0.0220004473
endheader
time	ground_force_vx	ground_force_vy	ground_force_vz	ground_force_px	ground_force_py	ground_force_pz	1_ground_force_vx	1_ground_force_vy	1_ground_force_vz	1_ground_force_px	1_ground_force_py	1_ground_force_pz	ground_torque_x	ground_torque_y	ground_torque_z	1_ground_torque_x	1_ground_torque_y	1_ground_torque_z	
        0.0000000000	       -5.9594294605	      559.9451319059	      -38.9641495130	       -0.7000000000	       -0.0180000000	        0.5600000000	       -0.1240176715	        3.3616086148	        0.3672062419	       -0.7000000000	       -0.0180000000	       -0.5600000000	      258.2770876880	       17.6511618768	      571.1664075738	       -0.3690633895	        0.5215676002	        0.8184050921	
        0.0020002953	       -5.2541921657	      558.8353285459	      -39.2657200924	       -0.7000000000	       -0.0180000000	        0.5600000000	       -0.1164793595	        3.3404641048	        0.3619500206	       -0.7000000000	       -0.0180000000	       -0.5600000000	      257.6881920406	       17.7601290952	      568.9220987815	       -0.3671651143	        0.5158252698	        0.7471697526	
        0.0039999904	       -4.5583288529	      557.7678299942	      -39.5604816658	       -0.7000000000	       -0.0180000000	        0.5600000000	       -0.1109048609	        3.3259500587	        0.3585733031	       -0.7000000000	       -0.0180000000	       -0.5600000000	      257.1223693748	       17.8716886428	      566.7136438467	       -0.3670742590	        0.5083829057	        0.6887701731	
        0.0060003256	       -3.8677274467	      556.7453706066	      -39.8392144210	       -0.7000000000	       -0.0180000000	        0.5600000000	       -0.1076222893	        3.3163115693	        0.3560455063	       -0.7000000000	       -0.0180000000	       -0.5600000000	      256.5809653288	       17.9752359422	      564.5425907540	       -0.3681322575	        0.5005693883	        0.6418648531	
        0.0080001008	       -3.1776626884	      555.7712609772	      -40.0933335812	       -0.7000000000	       -0.0180000000	        0.5600000000	       -0.1074051855	        3.3092803009	        0.3530865869	       -0.7000000000	       -0.0180000000	       -0.5600000000	      256.0657458162	       18.0601579862	      562.4108491785	       -0.3695391298	        0.4938598214	        0.6044135457	
        0.0100003561	       -2.4828034954	      554.8499327359	      -40.3153471258	       -0.7000000000	       -0.0180000000	        0.5600000000	       -0.1110379452	        3.3024593925	        0.3483617799	       -0.7000000000	       -0.0180000000	       -0.5600000000	      255.5790387282	       18.1161970652	      560.3218201948	       -0.3704890791	        0.4897956992	        0.5741843466	
        0.0120000512	       -1.7774062385	      553.9876103830	      -40.4993535193	       -0.7000000000	       -0.0180000000	        0.5600000000	       -0.1187729034	        3.2937050726	        0.3408355452	       -0.7000000000	       -0.0180000000	       -0.5600000000	      255.1238919380	       18.1341577689	      558.2817993535	       -0.3702858898	        0.4897357725	        0.5493712952	
        0.0140004264	       -1.0557514838	      553.1925909718	      -40.6413394823	       -0.7000000000	       -0.0180000000	        0.5600000000	       -0.1300445813	        3.2814007739	        0.3301256072	       -0.7000000000	       -0.0180000000	       -0.5600000000	      254.7041601113	       18.1070121550	      556.3005651519	       -0.3684091275	        0.4945152697	        0.5289862935	
        0.0160001617	       -0.3127263911	      552.4747049017	      -40.7390729419	       -0.7000000000	       -0.0180000000	        0.5600000000	       -0.1436410858	        3.2646170599	        0.3166776377	       -0.7000000000	       -0.0180000000	       -0.5600000000	      254.3243662231	       18.0302958085	      554.3903338158	       -0.3645784761	        0.5041904446	        0.5128236655	
        0.0180005369	        0.4557269235	      551.8441791354	      -40.7916083093	       -0.7000000000	       -0.0180000000	        0.5600000000	       -0.1582297745	        3.2430140984	        0.3016277390	       -0.7000000000	       -0.0180000000	       -0.5600000000	      253.9893166292	       17.9013547039	      552.5635423303	       -0.3587505417	        0.5180399721	        0.5009880716	
        0.0200001920	        1.2525617011	      551.3107297662	      -40.7987063591	       -0.7000000000	       -0.0180000000	        0.5600000000	       -0.1729439442	        3.2165560519	        0.2864156539	       -0.7000000000	       -0.0180000000	       -0.5600000000	      253.7037156285	       17.7183870100	      550.8310896217	       -0.3510138403	        0.5348121510	        0.4933491138	
        0.0220004473	        2.0800138865	      550.8835671135	      -40.7605941476	       -0.7000000000	       -0.0180000000	        0.5600000000	       -0.1876857961	        3.1854463408	        0.2723957688	       -0.7000000000	       -0.0180000000	       -0.5600000000	      253.4720802107	       17.4800945938	      549.2023676668	       -0.3415335237	        0.5530381622	        0.4894734961	
